<?xml version="1.0" encoding="UTF-8" standalone="no"?>
<svg
   width="164"
   height="26"
   viewBox="0 0 164 26"
   fill="none"
   version="1.1"
   id="svg3"
   sodipodi:docname="landing.svg"
   inkscape:version="1.3.2 (091e20ef0f, 2023-11-25)"
   xmlns:inkscape="http://www.inkscape.org/namespaces/inkscape"
   xmlns:sodipodi="http://sodipodi.sourceforge.net/DTD/sodipodi-0.dtd"
   xmlns="http://www.w3.org/2000/svg"
   xmlns:svg="http://www.w3.org/2000/svg">
  <defs
     id="defs3" />
  <sodipodi:namedview
     id="namedview3"
     pagecolor="#ffffff"
     bordercolor="#666666"
     borderopacity="1.0"
     inkscape:showpageshadow="2"
     inkscape:pageopacity="0.0"
     inkscape:pagecheckerboard="0"
     inkscape:deskcolor="#d1d1d1"
     inkscape:zoom="5.6585366"
     inkscape:cx="82"
     inkscape:cy="13.077586"
     inkscape:window-width="1920"
     inkscape:window-height="1004"
     inkscape:window-x="1920"
     inkscape:window-y="115"
     inkscape:window-maximized="1"
     inkscape:current-layer="svg3" />
  <path
     d="m 5.0419068,1.9955361 c -0.124112,-0.13922 -0.192918,-0.320579 -0.19322,-0.508771 0,-0.202335 0.07828,-0.39648 0.217902,-0.54015804 0.139626,-0.1436779 0.32922,-0.22525273 0.527478,-0.226961 h 0.0092 l 12.4486142,0.006476 h 0.0092 c 0.176598,-3.061e-5 0.351413,0.0372246 0.513313,0.10942365 0.161901,0.072199 0.30741,0.17778204 0.427402,0.31011704 0.82158,0.846273 2.92596,2.982843 6.722863,6.649323 5.077577,4.9027599 1.4732,9.7429599 1.4732,9.7429599 l -4.643869,4.7387 c 1.08956,-1.1881 -0.24753,-2.7547 -0.24753,-2.7547 L 5.0898598,2.0509461 c -0.012693,-0.01223 -0.025387,-0.02518 -0.037375,-0.03814 l -0.011988,-0.01295 z"
     fill="#00A3FF"
     id="path2"
     style="fill:#00ffff;stroke-width:1.0037" />
  <path
     d="m 21.53691,21.176818 -0.0042,-0.0044 -10.0763,-10.3453 c -0.0714,-0.0722 -0.1559,-0.1293 -0.2487,-0.1678 -0.0929,-0.0385 -0.1922,-0.0578 -0.2923,-0.0568 -0.1002,0.0011 -0.1991,0.0225 -0.2912,0.063 -0.092,0.0406 -0.1753,0.0994 -0.2452,0.1731 l -5.3286599,5.449 c -1.35177,1.6681 -0.54043,2.5274 -0.54043,2.5274 l 3.13896,3.3426 c 0.08021,0.0934 0.17893,0.1681 0.28953,0.2192 0.1106,0.051 0.2305,0.0771 0.3517,0.0766 H 20.96281 c 0.0084,0 0.0161,0 0.0252,0 0.1435,-9e-4 0.2837,-0.0444 0.4037,-0.1252 0.1199,-0.0809 0.2146,-0.1957 0.2726,-0.3306 0.058,-0.1349 0.0768,-0.2841 0.0542,-0.4298 -0.0226,-0.1456 -0.0857,-0.2814 -0.1816,-0.391 z"
     fill="white"
     id="path3"
     style="fill:#ffcc00" />
  <text
     xml:space="preserve"
     style="font-size:24.344px;line-height:1.25;font-family:sans-serif;fill:#000000;stroke-width:1.5215"
     x="32.109558"
     y="20.86282"
     id="text3"><tspan
       sodipodi:role="line"
       id="tspan3"
       x="32.109558"
       y="20.86282"
       style="font-style:normal;font-variant:normal;font-weight:normal;font-stretch:normal;font-size:24.344px;font-family:'Fira Code';-inkscape-font-specification:'Fira Code';fill:#f9f9f9;stroke-width:1.5215">ResuScan</tspan></text>
</svg>
